<?xml version="1.0" standalone="no"?>
<!DOCTYPE svg PUBLIC "-//W3C//DTD SVG 20010904//EN"
 "http://www.w3.org/TR/2001/REC-SVG-20010904/DTD/svg10.dtd">
<svg version="1.0" xmlns="http://www.w3.org/2000/svg"
 width="512.000000pt" height="512.000000pt" viewBox="0 0 512.000000 512.000000"
 preserveAspectRatio="xMidYMid meet">

<g transform="translate(0.000000,512.000000) scale(0.100000,-0.100000)"
fill="#000000" stroke="none">
<path d="M1602 4333 l-942 -545 0 -711 c0 -570 2 -708 13 -696 15 19 65 58
410 318 147 111 273 204 280 207 12 4 42 -6 220 -72 l68 -26 -4 -316 -3 -317
-48 -165 c-26 -91 -58 -201 -71 -245 -13 -44 -46 -161 -73 -260 -78 -279 -88
-310 -103 -307 -8 2 -162 89 -342 194 -181 104 -331 187 -334 185 -7 -8 44
-39 302 -187 127 -73 509 -292 850 -488 717 -412 721 -414 749 -406 12 3 305
169 651 367 347 198 758 434 915 524 157 90 293 173 303 184 16 20 17 85 15
1122 -3 1094 -3 1101 -23 1112 -11 5 -34 19 -50 31 -17 12 -91 54 -165 94 -74
40 -148 83 -165 95 -16 12 -93 57 -170 100 -77 43 -404 231 -726 417 -322 186
-592 338 -600 338 -8 -1 -438 -246 -957 -547z m706 -1035 l3 -67 -53 -3 -53
-3 -3 -237 -2 -238 55 0 55 0 0 -70 0 -70 -190 0 -191 0 3 68 3 67 53 3 52 3
0 240 0 239 -55 0 -55 0 0 63 c0 35 3 67 7 71 4 3 88 5 187 4 l181 -3 3 -67z
m622 -209 c0 -193 -4 -295 -12 -323 -19 -61 -89 -128 -162 -150 -104 -33 -211
-11 -295 59 -17 15 -31 32 -31 38 1 21 100 123 108 111 4 -6 25 -23 46 -38 82
-55 167 -20 181 75 3 24 5 149 3 277 l-3 232 83 0 82 0 0 -281z m-420 -1024
l0 -55 -345 0 -345 0 0 55 0 55 345 0 345 0 0 -55z"/>
</g>
</svg>
